<?xml version="1.0" encoding="UTF-8" standalone="no"?>
<!-- Created with Inkscape (http://www.inkscape.org/) -->

<svg
   width="210mm"
   height="297mm"
   viewBox="0 0 210 297"
   version="1.1"
   id="svg171"
   inkscape:version="1.1.2 (b8e25be833, 2022-02-05)"
   sodipodi:docname="SRBTestExhaust.svg"
   xmlns:inkscape="http://www.inkscape.org/namespaces/inkscape"
   xmlns:sodipodi="http://sodipodi.sourceforge.net/DTD/sodipodi-0.dtd"
   xmlns="http://www.w3.org/2000/svg"
   xmlns:svg="http://www.w3.org/2000/svg">
  <sodipodi:namedview
     id="namedview173"
     pagecolor="#505050"
     bordercolor="#eeeeee"
     borderopacity="1"
     inkscape:pageshadow="0"
     inkscape:pageopacity="0"
     inkscape:pagecheckerboard="0"
     inkscape:document-units="mm"
     showgrid="false"
     inkscape:zoom="0.90509668"
     inkscape:cx="714.28834"
     inkscape:cy="252.45922"
     inkscape:window-width="1920"
     inkscape:window-height="1051"
     inkscape:window-x="-9"
     inkscape:window-y="-9"
     inkscape:window-maximized="1"
     inkscape:current-layer="layer1" />
  <defs
     id="defs168" />
  <g
     inkscape:label="Layer 1"
     inkscape:groupmode="layer"
     id="layer1">
    <path
       style="fill:none;stroke:#000000;stroke-width:0.192379px;stroke-linecap:butt;stroke-linejoin:miter;stroke-opacity:1"
       d="m -1.7509384,108.75917 c 6.1893451,-0.30349 5.0010756,-0.30383 9.2732004,-0.77219 4.272135,-0.46834 6.010992,-0.62278 6.225261,-0.69288 0.214256,-0.0701 0.428851,-0.16461 1.12961,-0.16294 0.700741,0.002 3.415199,-0.19601 4.545034,-0.37518 1.129836,-0.17919 1.891406,-0.16855 2.593299,-0.24811 0.701876,-0.0795 1.615188,-0.0262 2.135323,-0.18137 0.520133,-0.15522 0.308146,-0.24753 1.130856,-0.25229 0.82271,-0.005 0.36964,-0.28727 2.227513,-0.23695 1.857876,0.0502 2.67979,0.10243 3.260963,-0.0601 0.581174,-0.16246 0.644823,-0.35654 1.069705,-0.23687 0.424896,0.11965 0.820228,0.17392 1.065959,0.0312 0.245746,-0.14278 0.06493,-0.2834 0.916262,-0.15779 0.851364,0.12562 1.432878,-0.0612 3.108426,-0.0459 1.675561,0.0154 1.068456,-0.14754 1.404578,-0.21596 0.336108,-0.0684 0.700402,0.0261 1.370692,0.0271 0.6703,0.001 2.727479,-0.039 3.582134,-0.14899 0.854654,-0.10992 1.188379,-0.008 1.952106,-0.15146 0.76371,-0.14367 0.470289,0.1406 1.723962,-0.179 1.253672,-0.31961 1.18029,-0.51965 2.107531,-0.37267 0.927243,0.14698 2.42166,0.0418 3.059562,0.18082 0.63789,0.13888 1.201801,0.12238 1.416113,0.0482 0.214312,-0.0741 0.339283,-0.29582 0.706074,-0.38005 0.366805,-0.0842 1.29762,-0.19308 1.889932,-0.0629 0.592326,0.13012 0.84955,0.25556 1.871407,0.17234 1.021857,-0.0831 2.316969,-0.0976 3.033358,-0.12416 0.716376,-0.0266 2.101818,-0.0482 2.093534,-0.22637 -0.0088,-0.17818 -0.06998,-0.39444 0.919746,-0.29446 0.989655,0.0999 2.058986,-0.10623 2.724894,0.035 0.665894,0.14141 2.185769,0.0707 2.648971,0.0714 0.463192,4.7e-4 1.848257,0.32737 2.131799,0.0786 0.283549,-0.24877 0.755198,-0.46765 1.576214,-0.24796 0.82101,0.21968 1.158793,0.32923 1.176958,0.18588 0.0182,-0.14334 0.082,-0.27528 0.559431,-0.14081 0.47749,0.13448 2.31924,0.34901 2.596527,0.16335 0.277281,-0.18568 0.67796,-0.33661 1.209826,-0.23873 0.531853,0.0978 1.351782,0.0545 2.676727,0.0852 1.324956,0.0307 2.389154,0.18769 3.230558,-0.0646 0.841417,-0.25226 1.30028,-0.38395 1.603933,-0.31065 0.303674,0.0732 1.188726,-0.0321 1.95319,-0.22861 0.764444,-0.19647 1.939061,-0.31003 2.029046,-0.20724 0.08996,0.10279 -0.07867,0.17762 0.469735,0.18121 0.54838,0.004 1.159159,-0.0975 1.539878,-0.0882 0.38072,0.009 1.726003,0.45343 2.846174,0.46332 1.12018,0.01 1.381384,-0.18174 1.352485,-0.42626 -0.02886,-0.24453 0.793593,-0.51736 1.749811,-0.33743 0.956211,0.17992 2.105461,0.11231 2.404231,-0.009 0.29876,-0.12174 -0.0111,-0.29057 -0.0247,-0.41057 -0.0135,-0.12 1.21766,-0.19522 1.95741,0.0131 0.73976,0.20834 2.366,0.13095 2.73482,0.0382 0.36883,-0.0928 0.81619,0.10631 1.32827,0.11346 0.51211,0.007 0.62297,-0.36338 1.52053,-0.21236 0.89755,0.15101 2.32796,0.29123 2.9733,0.25418 0.64534,-0.037 2.18952,-0.29843 2.69311,-0.52251 0.50358,-0.22406 1.17925,-0.56991 2.4953,-0.3485 1.31601,0.22144 3.59212,-0.2048 5.08712,-0.077 1.49502,0.12781 3.40864,0.1895 5.27925,0.50425 1.87062,0.31472 3.01049,0.3391 4.15343,0.35506 1.14291,0.016 2.23695,0.43018 2.58579,0.43505 0.34883,0.005 0.62247,-0.24463 1.41777,-0.17665 0.79529,0.068 0.9565,0.23269 2.0227,0.24758 1.06619,0.0149 2.25888,-0.30152 3.28317,-0.55933 1.0243,-0.25782 1.62155,-0.48101 1.98574,-0.37843 0.36418,0.10249 2.42987,-0.30204 2.17118,-0.56674 -0.25869,-0.26469 0.005,-0.36546 0.007,-0.50759 0.002,-0.14214 0.009,-0.31986 1.04311,-0.46413 1.03308,-0.14428 1.96306,0.20671 2.50687,0.2143 0.54378,0.008 3.10083,-0.75265 3.55317,-0.746334 0.45235,0.0063 1.46282,-0.239489 3.64117,-0.209071 2.17833,0.03042 3.35901,0.391497 4.89095,0.822915 1.53195,0.43142 2.35382,0.54233 2.59241,0.43618 0.23857,-0.10616 -1.14306,-0.40599 1.46805,-0.36953 2.6111,0.0365 3.08529,0.55796 5.22854,0.58789 2.14326,0.0299 1.63803,-0.046 2.21096,-0.19027 0.57295,-0.1442 3.03982,-0.31819 4.1034,-0.13923 1.06358,0.17894 1.52091,0.0706 2.33411,-0.13402 0.81322,-0.2047 2.59756,-0.801292 4.04639,-0.677432 1.44884,0.123852 3.07428,0.114732 3.64931,-0.141061 0.57505,-0.255866 1.88976,-0.583148 2.40587,-0.336012 0.51612,0.247141 1.46267,-0.01268 2.16506,0.185087 0.70237,0.197806 1.99361,0.166072 2.66674,0.175471 0.67314,0.0094 1.4112,-0.269333 1.8469,-0.378994 0.4357,-0.109669 1.08677,-0.312667 1.46869,-0.205116 0.38187,0.107547 0.80787,0.484773 1.83967,0.02569 1.03177,-0.459093 1.57401,-0.300508 2.09914,-0.293176 0.52512,0.0073 2.08817,0.168388 2.66807,-0.392701 0.57987,-0.561092 1.97476,-0.483905 3.06761,-0.176136 1.09284,0.307774 1.16029,0.222567 1.90653,-0.109466 0.74624,-0.332027 2.16907,-0.939213 2.90642,-0.731566 0.73734,0.20765 3.34083,0.04665 4.50603,0.06292 1.16518,0.01627 1.59072,-0.01101 2.2824,-0.318765 0.69168,-0.307761 2.19003,-0.303786 3.3167,0.0135 1.12665,0.317286 1.83512,-0.275934 2.96178,0.04136 1.12665,0.317286 1.12831,0.567143 2.52421,0.215783 1.39591,-0.351359 2.02262,-0.336694 3.38607,0.04728 1.36345,0.383976 2.01115,0.500251 3.04002,0.04245 1.02889,-0.457797 1.00761,-0.263687 1.80803,-0.25251 0.80041,0.01118 1.74767,-0.111562 3.64867,0.05095 1.90096,0.162505 1.36682,-0.07848 3.08608,-0.177192 1.71926,-0.09872 1.53456,-0.157599 5.05299,-0.10847 3.51843,0.04913 3.38922,-0.06353 4.28729,0.366505 0.89813,0.430033 1.82771,0.26356 3.32818,0.284512 1.50047,0.02095 2.64998,0.254769 3.04468,0.26028 0.39476,0.0055 1.42162,-0.115175 2.16568,-0.302463 0.74409,-0.187291 -0.99891,-0.697622 1.32572,-1.282746 2.32463,-0.585127 2.88706,-1.480943 5.84709,-1.227898 2.96009,0.253043 1.78465,-0.07814 3.31175,-0.462521 1.52707,-0.38438 1.3735,-0.626621 3.80076,-0.218231 2.42732,0.408395 0.93642,-0.266052 3.9105,-0.224523 2.97411,0.04153 7.00294,0.04325 9.89276,-0.122679 2.8898,-0.165923 0.008,-0.839225 5.46347,-0.763043 5.45385,0.07615 2.20612,0.371184 6.7606,1.137476 4.55447,0.766295 4.98014,-0.624654 7.57374,0.105757 2.59363,0.730413 4.28915,1.154937 4.30015,0.367603 0.011,-0.787334 0.49105,-0.980731 1.19734,-1.158509 0.70628,-0.177778 0.74091,0.29621 2.81364,0.473403 2.07277,0.177194 2.18653,0.206518 3.89563,-0.223672 1.70906,-0.430188 2.10972,-0.25354 3.96467,-0.227638 1.85495,0.0259 3.22541,-0.722377 6.98453,-0.401024 3.75907,0.321348 0.67641,-1.067421 4.69973,0.06562 4.02332,1.133042 2.67196,1.44445 5.25728,1.480551 2.58528,0.0361 2.84286,0.197692 2.85118,-0.398204 0.008,-0.5959 1.37262,-0.544589 1.38371,-1.338864 0.0111,-0.794279 5.23097,-1.316676 8.07406,-2.0323 2.84309,-0.715626 1.77818,0.927413 3.37216,0.949671 1.59399,0.02226 8.07429,-9.95e-4 11.8084,0.627269 3.7341,0.628271 0.69682,-0.530198 4.38312,-1.458062 3.68627,-0.927867 5.32043,0.07429 9.41308,0.13144 4.09267,0.05715 3.64714,0.799291 5.09295,0.435374 1.44576,-0.363917 0.97359,-1.457728 4.56995,-1.150291 3.59635,0.307437 2.5617,1.280145 4.58365,0.771208 2.02196,-0.508939 4.17936,0.440219 5.33901,0.456412 1.15971,0.01619 6.84624,-1.315492 10.86322,-0.972095 4.01704,0.343398 3.69391,0.615788 5.81761,0.08123 2.12373,-0.534551 4.14801,-0.401387 5.86407,0.08188 1.71601,0.483269 2.56349,-0.565211 10.96652,0.153132 8.40298,0.718339 13.93782,0.699451 7.29213,-0.418689 -6.64564,-1.118145 -5.8053,-2.886271 0.0392,-2.804662 5.8445,0.08161 1.13831,-0.837154 2.84953,-1.267885 1.71122,-0.430731 4.478,0.454241 8.13929,-0.46733 3.66129,-0.921574 10.29609,0.14377 10.29609,0.14377"
       id="path157" />
  </g>
</svg>
